<svg id="visual" viewBox="0 0 900 600" width="900" height="600" xmlns="http://www.w3.org/2000/svg" xmlns:xlink="http://www.w3.org/1999/xlink" version="1.1"><path d="M0 115L82 97L164 103L245 109L327 115L409 115L491 103L573 115L655 103L736 115L818 115L900 109L900 0L818 0L736 0L655 0L573 0L491 0L409 0L327 0L245 0L164 0L82 0L0 0Z" fill="#ffc927"></path><path d="M0 193L82 175L164 193L245 193L327 193L409 193L491 193L573 193L655 193L736 205L818 193L900 187L900 107L818 113L736 113L655 101L573 113L491 101L409 113L327 113L245 107L164 101L82 95L0 113Z" fill="#f9c321"></path><path d="M0 361L82 343L164 367L245 367L327 367L409 355L491 367L573 355L655 361L736 367L818 361L900 343L900 185L818 191L736 203L655 191L573 191L491 191L409 191L327 191L245 191L164 191L82 173L0 191Z" fill="#f4be1a"></path><path d="M0 433L82 415L164 433L245 433L327 439L409 421L491 439L573 427L655 433L736 433L818 433L900 415L900 341L818 359L736 365L655 359L573 353L491 365L409 353L327 365L245 365L164 365L82 341L0 359Z" fill="#efb812"></path><path d="M0 601L82 601L164 601L245 601L327 601L409 601L491 601L573 601L655 601L736 601L818 601L900 601L900 413L818 431L736 431L655 431L573 425L491 437L409 419L327 437L245 431L164 431L82 413L0 431Z" fill="#eab308"></path></svg>